# xmcd CD database file
#
# Track frame offsets:
#	150
#	20340
#	40489
#	63688
#	84640
#	120119
#	141622
#	164222
#	187002
#	205303
#
# Disc length: 3004 seconds
#
# Revision: 1
# Processed by: cddbd v1.5.2PL0 Copyright (c) Steve Scherf et al.
# Submitted via: CDex 1.51
#
DISCID=980bba0a
DTITLE=夏川里美 - 天空的風景
DYEAR=2003
DGENRE=Blues
TTITLE0=滿天星斗
TTITLE1=路標
TTITLE2=Salala
TTITLE3=遙遠
TTITLE4=甘蔗園(第17屆日本唱片大賞金賞作品) 
TTITLE5=鉛筆畫的眸子
TTITLE6=雖然難以對人啟齒
TTITLE7=美麗的島嶼
TTITLE8=月娘最美的時候
TTITLE9=給心愛的人
EXTD=YEAR: 2003
EXTT0=
EXTT1=
EXTT2=
EXTT3=
EXTT4=
EXTT5=
EXTT6=
EXTT7=
EXTT8=
EXTT9=
PLAYORDER=
